<svg xmlns="http://www.w3.org/2000/svg"  viewBox="0 0 50 50" width="50px" height="50px"><path d="M 25 4 C 17.664063 4 13.074219 6.636719 10.417969 9.722656 C 8.125 12.386719 7.394531 15.097656 7.195313 17 L 5 17 C 4.417969 17 3.949219 17.261719 3.605469 17.605469 C 3.261719 17.949219 3 18.417969 3 19 L 3 26 C 3 26.582031 3.261719 27.050781 3.605469 27.394531 C 3.949219 27.738281 4.417969 28 5 28 L 5.007813 28 C 5 28.09375 4.75 32.496094 7.117188 36.96875 C 9.511719 41.488281 14.714844 46 25 46 C 35.285156 46 40.488281 41.488281 42.882813 36.96875 C 45.25 32.496094 45 28.09375 44.996094 28 L 45 28 C 45.582031 28 46.050781 27.738281 46.394531 27.394531 C 46.738281 27.050781 47 26.582031 47 26 L 47 19 C 47 18.417969 46.738281 17.949219 46.394531 17.605469 C 46.050781 17.261719 45.582031 17 45 17 L 42.804688 17 C 42.605469 15.097656 41.875 12.386719 39.582031 9.722656 C 36.925781 6.636719 32.335938 4 25 4 Z M 21.800781 6.195313 C 20.710938 7.113281 20 8.472656 20 10 C 20 12.75 22.25 15 25 15 C 27.75 15 30 12.75 30 10 C 30 8.472656 29.289063 7.113281 28.199219 6.195313 C 33.121094 6.804688 36.15625 8.808594 38.066406 11.027344 C 40.359375 13.691406 41 16.8125 41 18 L 41 28 L 43 28 L 43 28.058594 C 43 28.058594 43.054688 29.269531 42.769531 31 L 41.566406 31 L 38.566406 26 L 34.28125 26 L 32.28125 32 L 30.660156 32 L 27.660156 25 L 22.339844 25 L 19.339844 32 L 17.71875 32 L 15.71875 26 L 11.433594 26 L 8.433594 31 L 7.226563 31 C 6.945313 29.269531 7 28.058594 7 28.058594 L 7 28 L 9 28 L 9 18 C 9 16.8125 9.640625 13.691406 11.933594 11.027344 C 13.84375 8.808594 16.878906 6.804688 21.800781 6.195313 Z M 25 7 C 26.667969 7 28 8.332031 28 10 C 28 11.667969 26.667969 13 25 13 C 23.332031 13 22 11.667969 22 10 C 22 8.332031 23.332031 7 25 7 Z M 32.988281 13.984375 C 32.726563 13.992188 32.476563 14.101563 32.292969 14.292969 L 29.585938 17 L 20.414063 17 L 17.707031 14.292969 C 17.519531 14.097656 17.261719 13.992188 16.988281 13.988281 C 16.59375 13.992188 16.238281 14.222656 16.078125 14.585938 C 15.917969 14.945313 15.984375 15.367188 16.25 15.660156 C 16.128906 15.757813 16.011719 15.859375 15.90625 15.96875 C 15.386719 16.503906 15 17.179688 15 18 C 15 19.722656 15.683594 20.925781 16.609375 21.484375 C 17.539063 22.039063 18.5 22 19 22 C 20.167969 22 21.222656 21.691406 21.957031 20.957031 C 22.472656 20.441406 22.769531 19.761719 22.90625 19 L 28.09375 19 C 28.230469 19.761719 28.527344 20.441406 29.042969 20.957031 C 29.777344 21.691406 30.832031 22 32 22 C 32.5 22 33.460938 22.039063 34.390625 21.484375 C 35.316406 20.925781 36 19.722656 36 18 C 36 17.179688 35.613281 16.503906 35.09375 15.96875 C 34.789063 15.652344 34.414063 15.386719 33.988281 15.210938 C 34.058594 14.910156 33.984375 14.59375 33.789063 14.355469 C 33.59375 14.113281 33.300781 13.980469 32.988281 13.984375 Z M 17.734375 17.144531 L 19.585938 19 L 20.703125 19 C 20.632813 19.148438 20.636719 19.449219 20.542969 19.542969 C 20.277344 19.808594 19.832031 20 19 20 C 18.5 20 17.960938 19.960938 17.640625 19.765625 C 17.316406 19.574219 17 19.277344 17 18 C 17 17.921875 17.113281 17.59375 17.34375 17.359375 C 17.480469 17.214844 17.597656 17.203125 17.734375 17.144531 Z M 33.265625 17.144531 C 33.402344 17.203125 33.519531 17.214844 33.65625 17.359375 C 33.886719 17.59375 34 17.921875 34 18 C 34 19.277344 33.683594 19.574219 33.359375 19.765625 C 33.039063 19.960938 32.5 20 32 20 C 31.167969 20 30.722656 19.808594 30.457031 19.542969 C 30.363281 19.449219 30.367188 19.148438 30.296875 19 L 31.414063 19 L 31.707031 18.707031 Z M 5 19 L 7 19 L 7 26 L 5 26 Z M 43 19 L 45 19 L 45 26 L 43 26 Z M 23.660156 27 L 26.339844 27 L 29.339844 34 L 33.71875 34 L 35.71875 28 L 37.433594 28 L 40.433594 33 L 42.328125 33 C 42.050781 33.964844 41.664063 34.996094 41.117188 36.03125 C 39.011719 40.011719 34.714844 44 25 44 C 15.285156 44 10.988281 40.011719 8.882813 36.03125 C 8.335938 34.996094 7.949219 33.964844 7.671875 33 L 9.566406 33 L 12.566406 28 L 14.28125 28 L 16.28125 34 L 20.660156 34 Z M 25 36 C 23.894531 36 23 36.894531 23 38 C 23 39.105469 23.894531 40 25 40 C 26.105469 40 27 39.105469 27 38 C 27 36.894531 26.105469 36 25 36 Z"/></svg>